<svg preserveAspectRatio="none" width="100%" height="100%" overflow="visible" style="display: block;" viewBox="0 0 103 20" fill="none" xmlns="http://www.w3.org/2000/svg">
<path id="logo" d="M56.7109 8.08301C57.5698 10.1797 58.3531 11.8219 58.4541 11.7461C58.531 11.6421 59.2372 9.97615 60.0195 8.00781L61.46 4.4209L63.001 4.34473C63.9098 4.29426 64.5415 4.37006 64.542 4.52148C64.542 4.97617 60.5256 14.7268 59.4141 16.9248C58.2063 19.364 57.531 19.9387 55.5156 20.001L51.9111 18.9707C51.9114 18.5409 52.6692 16.9248 52.8965 16.9248C52.9978 16.9249 53.4527 17.0516 53.9072 17.2031C54.9174 17.5565 55.8522 17.329 56.332 16.5713C56.7109 16.0156 56.6092 15.7125 54.3105 10.3574C52.997 7.27559 51.9111 4.64779 51.9111 4.52148C51.9119 4.39527 52.6445 4.29395 53.5029 4.29395H55.1191L56.7109 8.08301ZM29.8076 4.90039C31.399 4.14261 33.6472 4.0925 35.1123 4.77441C36.0975 5.20385 37.5127 6.59341 37.5127 7.09863C37.5118 7.22521 37.0069 7.57882 36.376 7.85645L35.2139 8.41211L34.582 7.80566C34.0769 7.3258 33.6476 7.19924 32.5869 7.19922C30.9955 7.19922 30.3385 7.6794 29.8838 9.14453C29.025 12.0495 32.1069 14.3484 34.2793 12.4033L35.1123 11.6709L36.3252 12.3018C36.982 12.6807 37.5127 13.0603 37.5127 13.2119C37.5116 13.7933 35.5422 15.3842 34.4814 15.6621C30.3387 16.7988 26.3976 14.0704 26.3975 10.1045C26.3975 7.73001 27.5595 5.96136 29.8076 4.90039ZM16.041 7.7041C16.041 11.5437 16.2934 12.4026 17.5059 12.832C18.491 13.1604 19.4255 12.9589 20.1328 12.2012C20.6633 11.6202 20.7135 11.3169 20.8398 8.00781L20.9668 4.4209H23.998L24.0732 10.0283L24.124 15.6621H22.4824C20.992 15.6621 20.8398 15.6108 20.8398 15.1309C20.8396 14.7945 20.5707 14.8115 20.0322 15.1816C19.0976 15.8637 17.0004 16.0907 15.7373 15.6865C14.6764 15.3327 13.4131 14.0448 13.0342 12.9082C12.8826 12.4279 12.7568 10.3819 12.7568 8.18457V4.29395H16.041V7.7041ZM78.208 1.01074C79.5216 0.75818 81.6437 0.909712 82.9824 1.38965C88.0848 3.18337 89.7012 9.37217 86.1143 13.3633C84.4725 15.1818 82.9316 15.788 79.9512 15.7881C77.8547 15.7628 77.3741 15.6872 76.1113 15.0811C73.4589 13.7927 72.0186 11.468 72.0186 8.46191C72.0187 4.72351 74.4695 1.7938 78.208 1.01074ZM0.100586 1.1875C0.125847 1.08646 0.833642 1.01003 1.71777 1.06055L3.28418 1.13672L3.35938 6.99707L3.41016 12.8828H10.9883V15.6621H0L0.0507812 8.5127C0.0760217 4.60045 0.100546 1.29354 0.100586 1.1875ZM42.8174 4.4209C42.8174 6.84584 42.8932 8.8418 43.0195 8.8418C43.1217 8.84058 44.1571 7.88098 45.3184 6.71973L47.4404 4.59766L49.1582 4.4209C50.0927 4.3199 51.0018 4.31987 51.1533 4.4209C51.3551 4.5474 50.6731 5.40605 49.2334 6.8457L47.0361 9.06836L47.4902 9.77637C47.743 10.1555 48.7789 11.5951 49.8145 12.959C50.8241 14.322 51.6569 15.4831 51.6582 15.5605C51.6582 15.6111 50.7994 15.6621 49.7637 15.6621H47.8691L46.3281 13.5654C45.4693 12.4287 44.737 11.4431 44.6865 11.3926C44.6357 11.3423 44.2062 11.5949 43.7012 11.9736C42.8678 12.6303 42.8174 12.7315 42.8174 14.1709V15.6621H39.5332V0H42.8174V4.4209ZM95.0059 4.92578C97.3804 3.66274 100.463 4.37001 101.6 6.44141C102.13 7.37602 102.181 7.78034 102.181 11.5439V15.6621H98.8965V12.3018C98.8965 9.44767 98.821 8.84116 98.3916 8.15918C97.5075 6.66879 95.3095 6.79528 94.3496 8.38672C93.9202 9.09401 93.8447 9.67532 93.8447 12.4287V15.6621H90.5605V4.54688H92.2021C93.6669 4.54688 93.8446 4.59743 93.8447 5.05176C93.8447 5.53167 93.8947 5.50663 95.0059 4.92578ZM81.7949 4.14258C80.7594 3.68795 79.0419 3.71332 78.0566 4.14258C75.7326 5.17828 74.7473 8.08387 75.9346 10.5342C77.1978 13.1609 80.7345 13.868 83.0078 11.9482C83.9928 11.0894 84.498 9.95227 84.498 8.4873C84.4979 6.49185 83.4873 4.84986 81.7949 4.14258Z" fill="var(--fill-0, black)"/>
</svg>
