<svg preserveAspectRatio="none" width="100%" height="100%" overflow="visible" style="display: block;" viewBox="0 0 102 20" fill="none" xmlns="http://www.w3.org/2000/svg">
<path id="logo" d="M56.6104 8.08301C57.4675 10.1792 58.2495 11.8212 58.3506 11.7461C58.4262 11.6451 59.1324 9.97709 59.9141 8.00684L61.3516 4.4209L62.8896 4.34473C63.7973 4.29424 64.4277 4.36994 64.4277 4.52148C64.4276 4.9765 60.4182 14.7261 59.3086 16.9238C58.1029 19.3631 57.4291 19.9378 55.417 20L51.8193 18.9697C51.8197 18.54 52.5757 16.9243 52.8027 16.9238C52.9036 16.9238 53.3576 17.0506 53.8115 17.2021C54.8201 17.5557 55.7533 17.3281 56.2324 16.5703C56.6106 16.0147 56.5094 15.7112 54.2148 10.3564C52.9037 7.27499 51.8195 4.64812 51.8193 4.52148C51.8193 4.39519 52.5509 4.29395 53.4082 4.29395H55.0215L56.6104 8.08301ZM29.7549 4.90039C31.3435 4.1426 33.5882 4.0924 35.0508 4.77441C36.034 5.20388 37.4457 6.59226 37.4463 7.09766C37.4463 7.22394 36.9418 7.57763 36.3115 7.85547L35.1514 8.41113L34.5215 7.80566C34.0172 7.32578 33.5881 7.19924 32.5293 7.19922C30.9408 7.19922 30.2849 7.67886 29.8311 9.14355C28.9737 12.0484 32.0502 14.3473 34.2188 12.4023L35.0508 11.6699L36.2607 12.3018C36.9164 12.6807 37.4463 13.0594 37.4463 13.2109C37.446 13.792 35.4789 15.3833 34.4199 15.6611C30.2846 16.7976 26.3506 14.0692 26.3506 10.1035C26.3507 7.72937 27.5109 5.96126 29.7549 4.90039ZM16.0127 7.7041C16.0127 11.5434 16.2644 12.4026 17.4746 12.832C18.458 13.1604 19.3916 12.958 20.0977 12.2002C20.627 11.6194 20.6776 11.3153 20.8037 8.00684L20.9297 4.4209H23.9551L24.0312 10.0283L24.0811 15.6611H22.4424C20.955 15.6611 20.8038 15.6105 20.8037 15.1309C20.8037 14.7941 20.534 14.8102 19.9961 15.1807C19.0631 15.8626 16.9708 16.0905 15.71 15.6865C14.6509 15.3329 13.39 14.0439 13.0117 12.9072C12.8605 12.4267 12.7344 10.3814 12.7344 8.18457V4.29395H16.0127V7.7041ZM78.0693 1.01074C79.3805 0.758159 81.4985 0.909774 82.835 1.38965C87.9286 3.18309 89.5426 9.37128 85.9619 13.3623C84.3229 15.1809 82.7849 15.7871 79.8096 15.7871C77.7167 15.7619 77.2373 15.6863 75.9766 15.0801C73.3289 13.7918 71.8916 11.4678 71.8916 8.46191C71.8916 4.72357 74.3375 1.79386 78.0693 1.01074ZM0.100586 1.1875C0.125802 1.08646 0.832275 1.01003 1.71484 1.06055L3.27832 1.13672L3.35352 6.99707L3.4043 12.8828H10.9688V15.6611H0L0.0507812 8.5127C0.075977 4.60063 0.100545 1.29367 0.100586 1.1875ZM42.7412 4.4209C42.7412 6.84562 42.8173 8.84082 42.9434 8.84082C43.0447 8.84026 44.0787 7.88036 45.2383 6.71875L47.3564 4.59766L49.0713 4.4209C50.004 4.31992 50.911 4.31992 51.0625 4.4209C51.2642 4.5472 50.5838 5.4059 49.1465 6.8457L46.9531 9.06836L47.4062 9.77539C47.6584 10.1543 48.6927 11.594 49.7266 12.958C50.7335 14.3198 51.5646 15.4803 51.5674 15.5596C51.5674 15.6101 50.7096 15.6611 49.6758 15.6611H47.7852L46.2471 13.5645C45.3907 12.4291 44.6593 11.4452 44.6074 11.3926C44.557 11.3421 44.1283 11.5938 43.624 11.9727C42.7919 12.6294 42.7412 12.7311 42.7412 14.1709V15.6611H39.4639V0H42.7412V4.4209ZM94.8379 4.92578C97.2082 3.6628 100.285 4.37011 101.42 6.44141C101.949 7.37585 102 7.78057 102 11.5439V15.6611H98.7217V12.3018C98.7217 9.44744 98.6455 8.84118 98.2168 8.15918C97.3343 6.66895 95.1409 6.79467 94.1826 8.38574C93.7539 9.09301 93.6787 9.67443 93.6787 12.4277V15.6611H90.4004V4.54688H92.0391C93.5014 4.54688 93.6787 4.59723 93.6787 5.05176C93.6787 5.53163 93.7288 5.50655 94.8379 4.92578ZM81.6504 4.14258C80.6165 3.6879 78.9014 3.71316 77.918 4.14258C75.5982 5.17828 74.6148 8.08311 75.7998 10.5332C77.0606 13.1601 80.5909 13.8676 82.8604 11.9482C83.8438 11.0894 84.3486 9.95232 84.3486 8.4873C84.3486 6.49187 83.3398 4.84989 81.6504 4.14258Z" fill="var(--fill-0, #BBBBBB)"/>
</svg>
